<svg id="svg" version="1.1" width="400" height="276.49769585253455" xmlns="http://www.w3.org/2000/svg" xmlns:xlink="http://www.w3.org/1999/xlink" style="display: block;"><g id="svgg"><path id="path0" d="M40.664 0.129 C 40.664 0.200,42.998 2.610,45.851 5.485 C 48.703 8.360,51.349 11.083,51.729 11.537 C 52.109 11.991,52.922 12.910,53.536 13.581 C 55.433 15.653,59.198 20.158,59.198 20.355 C 59.198 20.457,59.602 21.014,60.097 21.591 C 61.267 22.957,62.690 24.858,64.280 27.178 C 64.984 28.205,66.139 29.886,66.847 30.913 C 70.811 36.665,77.759 49.389,80.177 55.325 C 80.332 55.705,80.897 57.075,81.432 58.368 C 81.968 59.661,82.856 61.964,83.407 63.485 C 83.957 65.007,84.648 66.860,84.943 67.603 C 85.237 68.346,85.477 69.125,85.477 69.335 C 85.477 69.545,85.590 69.933,85.727 70.197 C 85.864 70.462,86.127 71.238,86.312 71.923 C 86.496 72.607,86.754 73.416,86.885 73.721 C 87.135 74.300,88.129 77.730,88.529 79.391 C 89.222 82.275,90.259 86.880,90.459 87.967 C 90.585 88.651,90.837 89.834,91.018 90.595 C 91.198 91.355,91.441 92.725,91.557 93.638 C 91.673 94.550,92.024 97.102,92.338 99.308 C 93.462 107.197,93.629 109.982,93.627 120.747 C 93.625 130.958,93.128 139.902,92.406 142.739 C 92.270 143.271,92.021 144.765,91.852 146.058 C 91.468 149.001,91.238 150.218,90.151 155.048 C 89.672 157.178,89.183 159.357,89.065 159.889 C 88.868 160.779,88.497 162.161,86.907 167.911 C 86.163 170.600,84.275 176.110,83.257 178.562 C 83.131 178.866,82.694 179.977,82.287 181.032 C 81.880 182.086,81.446 183.144,81.322 183.383 C 81.198 183.622,80.684 184.813,80.179 186.030 C 78.822 189.303,73.219 200.352,72.038 202.086 C 71.731 202.536,71.329 203.216,71.144 203.596 C 70.959 203.976,70.438 204.848,69.986 205.533 C 69.535 206.217,69.076 206.964,68.967 207.192 C 68.537 208.089,62.863 216.336,60.881 218.943 C 59.727 220.462,58.658 221.871,58.506 222.075 C 58.354 222.279,58.019 222.679,57.763 222.963 C 57.506 223.246,56.709 224.202,55.993 225.087 C 55.276 225.971,54.613 226.757,54.519 226.833 C 54.425 226.909,53.992 227.407,53.558 227.939 C 52.287 229.497,46.765 235.357,44.847 237.185 C 41.010 240.840,40.057 241.809,40.177 241.929 C 40.246 241.998,40.622 241.804,41.011 241.498 C 41.401 241.191,41.845 240.941,41.998 240.941 C 42.152 240.941,42.319 240.842,42.370 240.721 C 42.471 240.481,46.402 237.342,47.985 236.238 C 48.530 235.858,49.642 235.041,50.457 234.423 C 53.970 231.758,61.866 226.549,65.975 224.187 C 67.497 223.312,69.053 222.383,69.433 222.121 C 70.919 221.100,78.131 217.221,83.264 214.681 C 88.748 211.969,96.301 208.557,100.138 207.059 C 100.823 206.791,101.632 206.468,101.936 206.339 C 102.842 205.958,107.296 204.286,109.820 203.381 C 112.603 202.383,120.668 199.819,121.853 199.555 C 122.310 199.454,122.808 199.281,122.960 199.172 C 123.112 199.063,123.859 198.827,124.620 198.648 C 125.380 198.469,126.625 198.144,127.386 197.926 C 130.963 196.899,137.266 195.463,144.952 193.923 C 162.618 190.384,192.635 188.660,208.299 190.285 C 209.744 190.435,212.545 190.704,214.523 190.882 C 220.074 191.382,233.841 193.489,238.036 194.480 C 238.645 194.624,241.381 195.252,244.116 195.874 C 246.852 196.497,249.591 197.166,250.202 197.360 C 250.814 197.555,252.185 197.927,253.250 198.188 C 254.315 198.448,255.934 198.898,256.846 199.187 C 257.759 199.475,260.000 200.164,261.826 200.717 C 263.651 201.271,265.394 201.823,265.698 201.946 C 266.777 202.380,270.172 203.609,270.972 203.855 C 271.727 204.087,276.552 205.949,281.743 208.012 C 284.195 208.987,284.537 209.139,289.032 211.250 C 290.760 212.061,292.232 212.725,292.304 212.725 C 292.377 212.725,293.827 213.429,295.526 214.291 C 297.226 215.152,298.990 216.043,299.447 216.270 C 300.921 217.003,306.845 220.249,309.405 221.726 C 313.736 224.224,322.295 229.583,323.306 230.429 C 323.579 230.657,324.693 231.430,325.783 232.147 C 327.859 233.514,333.061 237.336,334.716 238.712 C 335.249 239.155,336.144 239.828,336.705 240.209 C 337.937 241.044,340.168 242.796,342.047 244.403 C 342.808 245.054,344.706 246.666,346.266 247.985 C 347.825 249.305,349.101 250.500,349.101 250.642 C 349.101 250.783,349.237 250.899,349.404 250.899 C 350.235 250.899,365.108 265.791,369.295 270.816 C 370.427 272.174,371.687 273.598,373.375 275.426 C 373.717 275.797,373.997 276.218,373.997 276.363 C 373.997 276.523,377.901 276.625,384.062 276.625 L 394.126 276.625 394.270 276.003 C 394.928 273.148,398.805 265.400,399.749 265.053 C 399.887 265.002,400.000 263.726,400.000 262.218 C 400.000 259.157,399.977 259.128,398.124 259.907 C 379.052 267.929,357.634 255.954,353.531 234.977 C 353.133 232.944,353.308 224.179,353.782 222.407 C 354.177 220.925,354.431 219.330,354.177 219.917 C 354.078 220.145,353.905 220.394,353.792 220.470 C 353.680 220.546,353.150 221.355,352.615 222.268 C 346.789 232.206,331.648 235.547,322.080 229.006 C 321.444 228.571,320.831 228.216,320.717 228.216 C 320.249 228.216,315.701 223.241,314.850 221.798 C 311.441 216.023,310.676 207.047,313.145 201.798 C 313.288 201.494,313.532 200.934,313.687 200.553 C 314.807 197.803,318.791 193.190,321.629 191.358 C 323.495 190.153,326.693 188.784,328.631 188.360 C 330.932 187.857,338.701 187.829,339.194 188.323 C 339.379 188.507,339.766 188.658,340.055 188.658 C 340.846 188.658,344.698 190.397,346.378 191.512 C 353.402 196.174,357.553 205.625,355.961 213.330 C 355.478 215.672,355.973 215.945,357.004 213.907 C 359.329 209.312,365.604 202.953,369.848 200.893 C 370.228 200.708,370.726 200.437,370.954 200.289 C 371.921 199.665,374.540 198.618,376.210 198.188 C 377.199 197.934,378.257 197.624,378.562 197.501 C 382.550 195.878,395.189 197.042,398.460 199.334 C 400.043 200.442,400.000 200.735,400.000 188.832 L 400.000 177.941 398.271 177.760 C 397.320 177.660,395.982 177.459,395.297 177.312 C 388.790 175.920,383.847 174.387,379.587 172.440 C 379.086 172.211,378.277 171.877,377.789 171.697 C 377.301 171.517,375.805 170.747,374.465 169.986 C 373.125 169.225,371.367 168.230,370.558 167.773 C 358.443 160.933,343.694 143.577,340.117 131.950 C 340.000 131.570,339.814 131.134,339.702 130.982 C 339.591 130.830,339.096 129.398,338.602 127.801 C 338.108 126.203,337.540 124.398,337.339 123.790 C 335.041 116.807,334.042 101.373,335.379 93.499 C 335.650 91.902,335.982 89.910,336.117 89.073 C 336.699 85.458,338.946 78.120,340.285 75.461 C 340.570 74.896,340.802 74.299,340.802 74.134 C 340.802 73.813,343.145 69.045,344.015 67.596 C 344.302 67.118,344.964 65.998,345.486 65.106 C 346.323 63.677,347.590 61.809,347.993 61.411 C 348.271 61.136,348.844 60.155,349.003 59.682 C 349.092 59.416,349.264 59.198,349.384 59.198 C 349.504 59.198,349.970 58.642,350.421 57.962 C 352.589 54.689,357.881 49.388,363.900 44.461 C 364.785 43.736,368.268 41.338,369.532 40.582 C 370.347 40.095,371.343 39.482,371.745 39.222 C 372.698 38.603,379.145 35.377,380.375 34.902 C 384.930 33.146,386.203 32.713,389.454 31.811 C 392.572 30.946,393.756 30.692,397.234 30.146 C 398.223 29.990,399.250 29.795,399.516 29.712 C 399.969 29.571,400.000 28.616,400.000 14.781 L 400.000 0.000 391.203 -0.000 L 382.405 -0.000 381.912 1.452 C 381.641 2.251,381.314 3.154,381.186 3.458 C 381.058 3.762,380.559 5.069,380.078 6.362 C 379.596 7.656,378.840 9.500,378.398 10.462 C 377.955 11.423,377.593 12.262,377.593 12.325 C 377.593 12.389,376.846 14.000,375.934 15.906 C 375.021 17.812,374.274 19.494,374.274 19.644 C 374.274 19.794,374.149 19.917,373.997 19.917 C 373.845 19.917,373.721 20.100,373.721 20.324 C 373.721 21.226,366.994 32.909,363.283 38.451 C 360.976 41.897,357.112 47.131,354.982 49.693 C 354.494 50.280,353.541 51.487,352.862 52.375 C 350.403 55.594,342.186 64.201,337.606 68.355 C 334.053 71.578,331.897 73.441,331.437 73.686 C 331.187 73.819,330.858 74.075,330.705 74.255 C 330.164 74.895,325.060 78.838,324.773 78.838 C 324.613 78.838,324.480 78.932,324.478 79.046 C 324.471 79.511,314.081 86.553,310.373 88.606 C 309.537 89.069,308.541 89.660,308.160 89.919 C 306.418 91.104,292.850 97.925,292.235 97.925 C 292.084 97.925,289.686 98.972,288.994 99.340 C 288.560 99.571,283.467 101.527,281.189 102.337 C 275.209 104.466,264.377 107.460,259.059 108.454 C 252.617 109.657,251.383 109.860,247.303 110.385 C 230.825 112.505,210.271 112.049,196.404 109.256 C 191.904 108.349,190.183 107.966,185.615 106.852 C 177.431 104.858,170.975 102.731,162.656 99.291 C 160.754 98.504,158.824 97.715,158.368 97.538 C 153.922 95.812,141.358 88.913,135.328 84.887 C 134.219 84.147,133.192 83.541,133.046 83.541 C 132.900 83.541,132.779 83.447,132.779 83.333 C 132.778 83.219,131.938 82.570,130.911 81.891 C 129.885 81.212,128.548 80.261,127.939 79.779 C 127.331 79.296,126.335 78.568,125.726 78.162 C 125.118 77.755,124.122 77.002,123.513 76.487 C 122.905 75.972,120.788 74.209,118.811 72.568 C 113.979 68.559,103.518 58.082,99.284 53.012 C 96.129 49.234,89.071 39.987,88.587 38.998 C 88.474 38.767,87.936 37.896,87.390 37.062 C 85.495 34.166,82.434 29.330,82.434 29.233 C 82.434 29.179,81.615 27.652,80.614 25.840 C 76.334 18.091,72.671 9.860,69.886 1.732 L 69.295 0.005 54.979 0.003 C 47.106 0.001,40.664 0.058,40.664 0.129 M355.334 216.402 C 355.215 216.675,355.196 216.976,355.291 217.070 C 355.572 217.351,355.798 216.957,355.669 216.412 C 355.554 215.928,355.539 215.928,355.334 216.402 M30.868 249.396 C 30.121 249.904,29.436 250.424,29.347 250.552 C 29.257 250.680,28.375 251.346,27.386 252.033 C 26.397 252.719,24.903 253.765,24.066 254.358 C 19.066 257.897,9.471 263.596,4.221 266.143 L 0.006 268.188 0.003 272.407 L 0.000 276.625 2.775 276.625 C 5.024 276.625,5.581 276.544,5.714 276.197 C 5.804 275.962,6.330 275.295,6.881 274.716 C 7.433 274.136,8.506 272.936,9.267 272.047 C 10.723 270.347,12.427 268.465,15.629 265.018 C 19.304 261.063,27.951 252.594,31.252 249.719 C 32.793 248.376,32.603 248.216,30.868 249.396 " stroke="none" fill="#1a4381" fill-rule="evenodd"></path><path id="path1" d="M0.000 134.025 C 0.000 207.739,0.078 268.050,0.173 268.050 C 1.629 268.050,17.885 258.734,24.066 254.358 C 24.903 253.765,26.397 252.718,27.386 252.030 C 28.375 251.342,29.308 250.636,29.461 250.462 C 29.884 249.978,32.365 248.358,32.365 248.566 C 32.365 248.667,31.846 249.202,31.210 249.755 C 25.550 254.685,14.671 265.738,9.267 272.047 C 8.506 272.936,7.433 274.136,6.881 274.716 C 6.330 275.295,5.804 275.962,5.714 276.197 C 5.566 276.583,23.639 276.625,189.774 276.625 C 303.978 276.625,373.997 276.527,373.997 276.366 C 373.997 276.140,373.416 275.449,371.093 272.915 C 370.788 272.583,369.979 271.639,369.295 270.817 C 365.122 265.806,350.236 250.899,349.404 250.899 C 349.237 250.899,349.101 250.783,349.101 250.642 C 349.101 250.500,347.825 249.305,346.266 247.985 C 344.706 246.666,342.808 245.054,342.047 244.403 C 340.168 242.796,337.937 241.044,336.705 240.209 C 336.144 239.828,335.249 239.155,334.716 238.712 C 333.061 237.336,327.859 233.514,325.783 232.147 C 324.693 231.430,323.579 230.657,323.306 230.429 C 322.295 229.583,313.736 224.224,309.405 221.726 C 306.845 220.249,300.921 217.003,299.447 216.270 C 298.990 216.043,297.226 215.152,295.526 214.291 C 293.827 213.429,292.377 212.725,292.304 212.725 C 292.232 212.725,290.760 212.061,289.032 211.250 C 284.537 209.139,284.195 208.987,281.743 208.012 C 276.552 205.949,271.727 204.087,270.972 203.855 C 270.172 203.609,266.777 202.380,265.698 201.946 C 265.394 201.823,263.651 201.271,261.826 200.717 C 260.000 200.164,257.759 199.475,256.846 199.187 C 255.934 198.898,254.315 198.448,253.250 198.188 C 252.185 197.927,250.814 197.555,250.202 197.360 C 249.591 197.166,246.852 196.497,244.116 195.874 C 241.381 195.252,238.645 194.624,238.036 194.480 C 233.841 193.489,220.074 191.382,214.523 190.882 C 212.545 190.704,209.744 190.435,208.299 190.285 C 192.635 188.660,162.618 190.384,144.952 193.923 C 137.266 195.463,130.963 196.899,127.386 197.926 C 126.625 198.144,125.380 198.469,124.620 198.648 C 123.859 198.827,123.112 199.063,122.960 199.172 C 122.808 199.281,122.310 199.454,121.853 199.555 C 120.668 199.819,112.603 202.383,109.820 203.381 C 107.296 204.286,102.842 205.958,101.936 206.339 C 101.632 206.468,100.823 206.791,100.138 207.059 C 91.855 210.292,73.652 219.222,69.433 222.121 C 69.053 222.383,67.497 223.312,65.975 224.187 C 61.866 226.549,53.970 231.758,50.457 234.423 C 49.642 235.041,48.530 235.858,47.985 236.238 C 46.402 237.342,42.471 240.481,42.370 240.721 C 42.319 240.842,42.152 240.941,41.998 240.941 C 41.845 240.941,41.401 241.191,41.011 241.498 C 40.622 241.804,40.246 241.998,40.177 241.929 C 40.057 241.809,41.010 240.840,44.847 237.185 C 46.765 235.357,52.287 229.497,53.558 227.939 C 53.992 227.407,54.425 226.909,54.519 226.833 C 54.613 226.757,55.276 225.971,55.993 225.087 C 56.709 224.202,57.506 223.246,57.763 222.963 C 58.019 222.679,58.354 222.279,58.506 222.075 C 58.658 221.871,59.727 220.462,60.881 218.943 C 62.863 216.336,68.537 208.089,68.967 207.192 C 69.076 206.964,69.535 206.217,69.986 205.533 C 70.438 204.848,70.959 203.976,71.144 203.596 C 71.329 203.216,71.731 202.536,72.038 202.086 C 73.219 200.352,78.822 189.303,80.179 186.030 C 80.684 184.813,81.198 183.622,81.322 183.383 C 81.446 183.144,81.880 182.086,82.287 181.032 C 82.694 179.977,83.131 178.866,83.257 178.562 C 84.275 176.110,86.163 170.600,86.907 167.911 C 88.497 162.161,88.868 160.779,89.065 159.889 C 89.183 159.357,89.672 157.178,90.151 155.048 C 91.238 150.218,91.468 149.001,91.852 146.058 C 92.021 144.765,92.270 143.271,92.406 142.739 C 93.128 139.902,93.625 130.958,93.627 120.747 C 93.629 109.982,93.462 107.197,92.338 99.308 C 92.024 97.102,91.673 94.550,91.557 93.638 C 91.441 92.725,91.198 91.355,91.018 90.595 C 90.837 89.834,90.585 88.651,90.459 87.967 C 90.259 86.880,89.222 82.275,88.529 79.391 C 88.129 77.730,87.135 74.300,86.885 73.721 C 86.754 73.416,86.496 72.607,86.312 71.923 C 86.127 71.238,85.864 70.462,85.727 70.197 C 85.590 69.933,85.477 69.545,85.477 69.335 C 85.477 69.125,85.237 68.346,84.943 67.603 C 84.648 66.860,83.957 65.007,83.407 63.485 C 82.856 61.964,81.968 59.661,81.432 58.368 C 80.897 57.075,80.332 55.705,80.177 55.325 C 77.759 49.389,70.811 36.665,66.847 30.913 C 66.139 29.886,64.984 28.205,64.280 27.178 C 62.690 24.858,61.267 22.957,60.097 21.591 C 59.602 21.014,59.198 20.457,59.198 20.355 C 59.198 20.158,55.433 15.653,53.536 13.581 C 52.922 12.910,52.109 11.991,51.729 11.538 C 51.349 11.086,48.647 8.304,45.727 5.358 L 40.416 0.000 20.208 0.000 L 0.000 0.000 0.000 134.025 M69.433 0.350 C 69.433 0.542,69.694 1.382,70.013 2.217 C 70.332 3.052,70.945 4.731,71.376 5.949 C 73.024 10.611,77.369 19.966,80.614 25.840 C 81.615 27.652,82.434 29.179,82.434 29.233 C 82.434 29.330,85.495 34.166,87.390 37.062 C 87.936 37.896,88.474 38.767,88.587 38.998 C 89.071 39.987,96.129 49.234,99.284 53.012 C 103.518 58.082,113.979 68.559,118.811 72.568 C 120.788 74.209,122.905 75.972,123.513 76.487 C 124.122 77.002,125.118 77.755,125.726 78.162 C 126.335 78.568,127.331 79.296,127.939 79.779 C 128.548 80.261,129.885 81.212,130.911 81.891 C 131.938 82.570,132.778 83.219,132.779 83.333 C 132.779 83.447,132.900 83.541,133.046 83.541 C 133.192 83.541,134.219 84.147,135.328 84.887 C 141.358 88.913,153.922 95.812,158.368 97.538 C 158.824 97.715,160.754 98.504,162.656 99.291 C 170.975 102.731,177.431 104.858,185.615 106.852 C 190.183 107.966,191.904 108.349,196.404 109.256 C 210.271 112.049,230.825 112.505,247.303 110.385 C 251.383 109.860,252.617 109.657,259.059 108.454 C 264.377 107.460,275.209 104.466,281.189 102.337 C 283.467 101.527,288.560 99.571,288.994 99.340 C 289.686 98.972,292.084 97.925,292.235 97.925 C 292.850 97.925,306.418 91.104,308.160 89.919 C 308.541 89.660,309.537 89.069,310.373 88.606 C 314.081 86.553,324.471 79.511,324.478 79.046 C 324.480 78.932,324.613 78.838,324.773 78.838 C 325.060 78.838,330.164 74.895,330.705 74.255 C 330.858 74.075,331.187 73.819,331.437 73.686 C 331.897 73.441,334.053 71.578,337.606 68.355 C 342.186 64.201,350.403 55.594,352.862 52.375 C 353.541 51.487,354.494 50.280,354.982 49.693 C 357.112 47.131,360.976 41.897,363.283 38.451 C 366.994 32.909,373.721 21.226,373.721 20.324 C 373.721 20.100,373.845 19.917,373.997 19.917 C 374.149 19.917,374.274 19.794,374.274 19.644 C 374.274 19.494,375.021 17.812,375.934 15.906 C 376.846 14.000,377.593 12.389,377.593 12.325 C 377.593 12.262,377.955 11.423,378.398 10.462 C 378.840 9.500,379.596 7.656,380.078 6.362 C 380.559 5.069,381.055 3.762,381.180 3.458 C 381.594 2.451,382.296 0.400,382.296 0.198 C 382.296 0.089,311.902 0.000,225.864 0.000 C 99.972 0.000,69.433 0.068,69.433 0.350 M399.424 29.714 C 399.360 29.777,398.437 29.963,397.372 30.127 C 393.828 30.675,392.625 30.931,389.454 31.811 C 386.203 32.713,384.930 33.146,380.375 34.902 C 379.145 35.377,372.698 38.603,371.745 39.222 C 371.343 39.482,370.347 40.095,369.532 40.582 C 368.268 41.338,364.785 43.736,363.900 44.461 C 357.881 49.388,352.589 54.689,350.421 57.962 C 349.970 58.642,349.504 59.198,349.384 59.198 C 349.264 59.198,349.092 59.416,349.003 59.682 C 348.844 60.155,348.271 61.136,347.993 61.411 C 347.590 61.809,346.323 63.677,345.486 65.106 C 344.964 65.998,344.302 67.118,344.015 67.596 C 343.145 69.045,340.802 73.813,340.802 74.134 C 340.802 74.299,340.570 74.896,340.285 75.461 C 338.946 78.120,336.699 85.458,336.117 89.073 C 335.982 89.910,335.650 91.902,335.379 93.499 C 334.042 101.373,335.041 116.807,337.339 123.790 C 337.540 124.398,338.112 126.201,338.611 127.796 C 339.110 129.391,339.682 131.009,339.882 131.392 C 340.082 131.775,340.246 132.175,340.247 132.281 C 340.251 132.715,344.286 140.779,345.471 142.722 C 351.363 152.378,361.864 162.865,370.558 167.773 C 371.367 168.230,373.125 169.225,374.465 169.986 C 375.805 170.747,377.301 171.517,377.789 171.697 C 378.277 171.877,379.086 172.211,379.587 172.440 C 383.847 174.387,388.790 175.920,395.297 177.312 C 395.982 177.459,397.320 177.660,398.271 177.760 L 400.000 177.941 400.000 103.770 C 400.000 62.976,399.896 29.599,399.769 29.599 C 399.643 29.599,399.487 29.650,399.424 29.714 M330.705 187.985 C 330.401 188.057,329.405 188.259,328.492 188.434 C 326.716 188.775,323.520 190.137,321.629 191.358 C 318.791 193.190,314.807 197.803,313.687 200.553 C 313.532 200.934,313.288 201.494,313.145 201.798 C 310.676 207.047,311.441 216.023,314.850 221.798 C 315.701 223.241,320.249 228.216,320.717 228.216 C 320.831 228.216,321.444 228.571,322.080 229.006 C 331.648 235.547,346.789 232.206,352.615 222.268 C 353.150 221.355,353.680 220.546,353.792 220.470 C 353.905 220.394,354.078 220.145,354.177 219.917 C 354.431 219.330,354.177 220.925,353.782 222.407 C 353.308 224.179,353.133 232.944,353.531 234.977 C 357.452 255.025,377.646 267.244,395.989 260.667 C 397.054 260.285,398.392 259.835,398.963 259.667 L 400.000 259.360 400.000 229.542 C 400.000 201.152,399.976 199.723,399.508 199.723 C 399.238 199.723,398.766 199.548,398.460 199.334 C 395.189 197.042,382.550 195.878,378.562 197.501 C 378.257 197.624,377.199 197.934,376.210 198.188 C 374.540 198.618,371.921 199.665,370.954 200.289 C 370.726 200.437,370.228 200.708,369.848 200.893 C 365.604 202.953,359.329 209.312,357.004 213.907 C 355.973 215.945,355.478 215.672,355.961 213.330 C 357.553 205.625,353.402 196.174,346.378 191.512 C 344.698 190.397,340.846 188.658,340.055 188.658 C 339.766 188.658,339.394 188.523,339.228 188.357 C 338.921 188.050,331.753 187.737,330.705 187.985 M355.626 217.080 C 355.324 217.382,355.117 216.902,355.334 216.402 C 355.539 215.928,355.554 215.928,355.669 216.412 C 355.735 216.690,355.716 216.991,355.626 217.080 M398.181 267.289 C 396.609 269.869,396.107 270.889,395.112 273.529 C 393.845 276.888,393.679 276.625,397.063 276.625 L 400.000 276.625 400.000 270.816 C 400.000 267.621,399.903 265.007,399.785 265.007 C 399.667 265.007,398.945 266.034,398.181 267.289 " stroke="none" fill="#3479a0" fill-rule="evenodd"></path></g></svg>